<svg xmlns="http://www.w3.org/2000/svg" width="119" height="69" viewBox="0 0 119 69"><defs><style>.a{fill:#00367b;}.b,.c,.d{fill:#fff;}.b{font-size:24px;font-family:NunitoSans-ExtraBold, Nunito Sans;font-weight:800;}.c{font-size:7px;font-family:Roboto-Regular, Roboto;}</style></defs><g transform="translate(-1.455 -0.243)"><rect class="a" width="119" height="69" rx="10" transform="translate(1.455 0.243)"/><text class="b" transform="translate(10.722 36.842)"><tspan x="0" y="0">70%</tspan></text><text class="c" transform="translate(12.076 49.281)"><tspan x="0" y="0">for all Korea Products</tspan><tspan x="0" y="8">min purchase Rp 1.000.000</tspan><tspan x="0" y="16"></tspan></text><g transform="translate(80.36 8.657)"><path class="d" d="M53.669,57.429a3.48,3.48,0,0,1-.188,1.207,2.148,2.148,0,0,1-.564.826,2.086,2.086,0,0,1-.909.476,6.171,6.171,0,0,1-1.16.127,3.2,3.2,0,0,1-.533-.032,3.626,3.626,0,0,1-.564-.127,4.421,4.421,0,0,1-.564-.254,1.6,1.6,0,0,1-.5-.413,2.229,2.229,0,0,1-.408-.762,3.049,3.049,0,0,1-.125-.953V52.856h1.474V57.4a1.932,1.932,0,0,0,.094.635,1.49,1.49,0,0,0,.251.445,1.1,1.1,0,0,0,.408.254,1.243,1.243,0,0,0,.47.1,1.435,1.435,0,0,0,1.066-.349,1.374,1.374,0,0,0,.314-.985V52.856h1.442Z" transform="translate(-37.552 -51.935)"/><path class="d" d="M67.8,56.009a4.922,4.922,0,0,1,.188-1.429,3.791,3.791,0,0,1,.47-1.016,2.208,2.208,0,0,1,.658-.667,4.189,4.189,0,0,1,.753-.381,3.228,3.228,0,0,1,.69-.191,5.04,5.04,0,0,1,1.129,0,2.8,2.8,0,0,1,.69.191,4.189,4.189,0,0,1,.752.381,2.21,2.21,0,0,1,.659.667,3.8,3.8,0,0,1,.47,1.016,5.526,5.526,0,0,1,0,2.859,3.8,3.8,0,0,1-.47,1.016,2.209,2.209,0,0,1-.659.667,4.208,4.208,0,0,1-.752.381,3.227,3.227,0,0,1-.69.19,3.341,3.341,0,0,1-.564,0,3.771,3.771,0,0,1-.564-.032,2.814,2.814,0,0,1-.69-.191,4.186,4.186,0,0,1-.753-.381,2.206,2.206,0,0,1-.658-.667,3.8,3.8,0,0,1-.47-1.016A4.555,4.555,0,0,1,67.8,56.009Zm1.442,0a3.362,3.362,0,0,0,.188,1.207,2.243,2.243,0,0,0,.47.762,1.3,1.3,0,0,0,.627.381,2.5,2.5,0,0,0,.627.1,2.311,2.311,0,0,0,.627-.1,1.457,1.457,0,0,0,.627-.381,2.233,2.233,0,0,0,.47-.762,3.961,3.961,0,0,0,0-2.414,2.233,2.233,0,0,0-.47-.762,1.3,1.3,0,0,0-.627-.381,2.113,2.113,0,0,0-1.254,0,1.46,1.46,0,0,0-.627.381,2.243,2.243,0,0,0-.47.762A3.245,3.245,0,0,0,69.239,56.009Z" transform="translate(-50.55 -51.562)"/><path class="d" d="M90.871,52.856h3.355a2.566,2.566,0,0,1,1.066.191,2.181,2.181,0,0,1,.659.445,1.859,1.859,0,0,1,.345.572,2.159,2.159,0,0,1,.094.572,1.805,1.805,0,0,1-.094.635,1.268,1.268,0,0,1-.22.413,2.04,2.04,0,0,1-.282.254,1.736,1.736,0,0,0-.251.159,1.5,1.5,0,0,1,.533.318,1.3,1.3,0,0,1,.314.413,1.408,1.408,0,0,1,.157.476,2.8,2.8,0,0,1,.063.508,2.238,2.238,0,0,1-.157.794,1.534,1.534,0,0,1-.439.635,1.239,1.239,0,0,1-.314.254,1.608,1.608,0,0,1-.408.19,2.428,2.428,0,0,1-.6.127,7.051,7.051,0,0,1-.878.032H90.9V52.856Zm1.38,2.763h1.693a1.286,1.286,0,0,0,.721-.19.786.786,0,0,0,0-1.207,1.709,1.709,0,0,0-.784-.159H92.219v1.556Zm0,3.049h1.787a1.255,1.255,0,0,0,.815-.254.973.973,0,0,0,.282-.794.684.684,0,0,0-.094-.381.646.646,0,0,0-.251-.254,1.681,1.681,0,0,0-.345-.159,1.512,1.512,0,0,0-.376-.032h-1.85v1.874Z" transform="translate(-65.816 -51.935)"/><path class="d" d="M21.228,58.932h-.721a.149.149,0,0,1-.157-.159v-8.48a.149.149,0,0,1,.157-.159h.721a.149.149,0,0,1,.157.159V58.8A.144.144,0,0,1,21.228,58.932Z" transform="translate(-19.159 -50.134)"/><path class="d" d="M26.417,58.932H25.7a.149.149,0,0,1-.157-.159v-8.48a.149.149,0,0,1,.157-.159h.721a.149.149,0,0,1,.157.159V58.8A.144.144,0,0,1,26.417,58.932Z" transform="translate(-22.592 -50.134)"/><path class="d" d="M31.514,58.932h-.721a.149.149,0,0,1-.157-.159v-8.48a.149.149,0,0,1,.157-.159h.721a.149.149,0,0,1,.157.159V58.8A.144.144,0,0,1,31.514,58.932Z" transform="translate(-25.964 -50.134)"/><path class="d" d="M36.611,58.932H35.89a.149.149,0,0,1-.157-.159v-8.48a.149.149,0,0,1,.157-.159h.721a.149.149,0,0,1,.157.159V58.8A.144.144,0,0,1,36.611,58.932Z" transform="translate(-29.336 -50.134)"/><path class="d" d="M16.829,62.475v-.731a.149.149,0,0,1,.157-.159H25.3a.149.149,0,0,1,.157.159v.731a.149.149,0,0,1-.157.159h-8.31A.169.169,0,0,1,16.829,62.475Z" transform="translate(-16.829 -57.71)"/></g></g></svg>