<svg xmlns="http://www.w3.org/2000/svg" width="17.357" height="18.867" viewBox="0 0 17.357 18.867">
  <g id="Group_397" data-name="Group 397" transform="translate(13.75 0.75)">
    <path id="Path_1544" data-name="Path 1544" d="M208.357,933.541H192.5l.106-.747c.372-2.6,2.849-5.293,5.48-5.293h4.87c2.631,0,4.922,2.689,5.294,5.293Z" transform="translate(-205.5 -916.174)" fill="none" stroke="#aaa" stroke-linecap="round" stroke-linejoin="round" stroke-width="1.5"/>
    <path id="Path_1545" data-name="Path 1545" d="M201.42,920.806h0a3.094,3.094,0,0,1-3.075-2.752l-.235-2.119a3.093,3.093,0,0,1,3.074-3.435h.471a3.093,3.093,0,0,1,3.074,3.435l-.235,2.119A3.094,3.094,0,0,1,201.42,920.806Z" transform="translate(-206.869 -912.5)" fill="none" stroke="#aaa" stroke-linecap="round" stroke-linejoin="round" stroke-width="1.5"/>
  </g>
</svg>
