<svg id="Logo_Dalem" data-name="Logo Dalem" xmlns="http://www.w3.org/2000/svg" width="30.564" height="19.561" viewBox="0 0 30.564 19.561">
  <path id="Path_897" data-name="Path 897" d="M68.535,152.556l-7.117-8.084a.747.747,0,0,0-1.1-.021l-3.937,4.166a.725.725,0,0,0,.086,1.073c6.539,5.078,10.5,8.642,11.992,10.032a.748.748,0,0,0,1.152-.176A51.174,51.174,0,0,1,86.4,141.7a.72.72,0,0,0,.269-.941l-.007-.015a.742.742,0,0,0-.952-.323,43.044,43.044,0,0,0-16.031,12.108A.745.745,0,0,1,68.535,152.556Z" transform="translate(-56.182 -140.357)" fill="#fff"/>
</svg>
