<svg xmlns="http://www.w3.org/2000/svg" width="27.461" height="19.068" viewBox="0 0 27.461 19.068">
  <g id="Group_861" data-name="Group 861" transform="translate(0.501 0.502)">
    <path id="ic_local_shipping_24px" d="M23.55,8.508H20.571c-.382,0-.332-.234-.332-.234V4.458a.412.412,0,0,0-.4-.459C19.39,3.933,3.4,4,3.4,4A2.34,2.34,0,0,0,1,6.253V18.069a.544.544,0,0,0,.562.584c.6.015,1.843,0,1.843,0a3.5,3.5,0,0,0,3.607,3.382,3.5,3.5,0,0,0,3.607-3.382h7.215a3.5,3.5,0,0,0,3.607,3.382,3.5,3.5,0,0,0,3.607-3.382h2.181c.286,0,.224-.36.224-.36V13.164a.541.541,0,0,0-.177-.368l-3.25-4.063S23.937,8.508,23.55,8.508ZM7.012,20.344a1.694,1.694,0,1,1,0-3.382,1.694,1.694,0,1,1,0,3.382Zm16.358-10,2.111,2.525s.174.144-.044.144H20.43a.205.205,0,0,1-.192-.171V10.424s0-.225.2-.225h2.606A.409.409,0,0,1,23.37,10.348Zm-1.929,10a1.694,1.694,0,1,1,1.8-1.691A1.748,1.748,0,0,1,21.441,20.344Z" transform="translate(-1 -3.969)" fill="#fff" stroke="#83b582" stroke-width="1"/>
    <text id="Free" transform="translate(1.186 8.908)" fill="#83b582" font-size="8" font-family="Roboto-Bold, Roboto" font-weight="700"><tspan x="0" y="0">Free</tspan></text>
  </g>
</svg>
