<svg id="Component_1_1" data-name="Component 1 – 1" xmlns="http://www.w3.org/2000/svg" width="18.182" height="14.685" viewBox="0 0 18.182 14.685">
  <g id="ic_confirmation_number_24px" transform="translate(-2 -4)" fill="#fff">
    <path d="M 18.36389350891113 17.93549919128418 L 3.818212985992432 17.93549919128418 C 3.22920298576355 17.93549919128418 2.750003099441528 17.44845962524414 2.750003099441528 16.84980964660645 L 2.750003099441528 13.81599521636963 C 3.801453590393066 13.49220561981201 4.568212985992432 12.50595760345459 4.568212985992432 11.34274959564209 C 4.568212985992432 10.18058586120605 3.805370092391968 9.195013999938965 2.759093046188354 8.870326042175293 L 2.759093046188354 5.835689544677734 C 2.759093046188354 5.237039566040039 3.23421311378479 4.749999523162842 3.818212985992432 4.749999523162842 L 18.36389350891113 4.749999523162842 C 18.95290374755859 4.749999523162842 19.43210220336914 5.237039566040039 19.43210220336914 5.835689544677734 L 19.43210220336914 8.869503974914551 C 18.38065147399902 9.193293571472168 17.61389350891113 10.17954158782959 17.61389350891113 11.34274959564209 C 17.61389350891113 12.50595760345459 18.38065147399902 13.49220561981201 19.43210220336914 13.81599521636963 L 19.43210220336914 16.84980964660645 C 19.43210220336914 17.44845962524414 18.95290374755859 17.93549919128418 18.36389350891113 17.93549919128418 Z" stroke="none"/>
    <path d="M 3.818212509155273 5.5 C 3.644872665405273 5.5 3.509092330932617 5.647449493408203 3.509092330932617 5.835689544677734 L 3.509092330932617 8.369850158691406 C 4.581995010375977 8.922106742858887 5.318212509155273 10.0473518371582 5.318212509155273 11.34274959564209 C 5.318212509155273 12.63971900939941 4.577976226806641 13.76622867584229 3.500003814697266 14.31776237487793 L 3.500003814697266 16.84980964660645 C 3.500003814697266 17.03176879882813 3.645723342895508 17.18549919128418 3.818212509155273 17.18549919128418 L 18.36389350891113 17.18549919128418 C 18.5363826751709 17.18549919128418 18.68210220336914 17.03176879882813 18.68210220336914 16.84980964660645 L 18.68210220336914 14.31776237487793 C 17.60412979125977 13.76622867584229 16.86389350891113 12.63971900939941 16.86389350891113 11.34274959564209 C 16.86389350891113 10.04578018188477 17.60412979125977 8.919270515441895 18.68210220336914 8.36773681640625 L 18.68210220336914 5.835689544677734 C 18.68210220336914 5.650588989257813 18.53935241699219 5.5 18.36389350891113 5.5 L 3.818212509155273 5.5 M 3.818212509155273 4 L 18.36389350891113 4 C 19.36391258239746 4 20.18210220336914 4.816879272460938 20.18210220336914 5.835689544677734 L 20.18210220336914 9.507060050964355 C 19.18209266662598 9.507060050964355 18.36389350891113 10.33311939239502 18.36389350891113 11.34274959564209 C 18.36389350891113 12.35237979888916 19.18209266662598 13.17843914031982 20.18210220336914 13.17843914031982 L 20.18210220336914 16.84980964660645 C 20.18210220336914 17.85943984985352 19.36391258239746 18.68549919128418 18.36389350891113 18.68549919128418 L 3.818212509155273 18.68549919128418 C 2.818193435668945 18.68549919128418 2.000003814697266 17.85943984985352 2.000003814697266 16.84980964660645 L 2.000003814697266 13.17843914031982 C 3.009103775024414 13.17843914031982 3.818212509155273 12.35237979888916 3.818212509155273 11.34274959564209 C 3.818212509155273 10.33311939239502 3.009103775024414 9.507060050964355 2.009092330932617 9.507060050964355 L 2.009092330932617 5.835689544677734 C 2.009092330932617 4.816879272460938 2.818193435668945 4 3.818212509155273 4 Z" stroke="none" fill="#f67280"/>
  </g>
  <text id="_" data-name="%" transform="translate(6.878 10.797)" fill="#f67280" font-size="10" font-family="Roboto-Bold, Roboto" font-weight="700"><tspan x="0" y="0">%</tspan></text>
  <line id="Line_995" data-name="Line 995" y2="9.79" transform="translate(5.245 2.448)" fill="none" stroke="#f67280" stroke-linecap="round" stroke-width="1.5" stroke-dasharray="3 2"/>
</svg>
